<mxfile host="app.diagrams.net" modified="2023-01-31T02:47:13.241Z" agent="5.0 (Windows NT 10.0; Win64; x64) AppleWebKit/537.36 (KHTML, like Gecko) Chrome/109.0.0.0 Safari/537.36" etag="TULXsY3NtF-FjkzGmy2z" version="20.8.13" type="github">
  <diagram name="Page-1" id="8kGfSkYnxmist8NUK1Mw">
    <mxGraphModel dx="1120" dy="444" grid="1" gridSize="10" guides="1" tooltips="1" connect="1" arrows="1" fold="1" page="1" pageScale="1" pageWidth="850" pageHeight="1100" math="0" shadow="0">
      <root>
        <mxCell id="0" />
        <mxCell id="1" parent="0" />
        <mxCell id="iLQZR6AZEDEkbP0tyVn0-1" value="" style="strokeWidth=2;html=1;shape=mxgraph.flowchart.start_1;whiteSpace=wrap;" vertex="1" parent="1">
          <mxGeometry x="350" y="10" width="100" height="60" as="geometry" />
        </mxCell>
        <mxCell id="iLQZR6AZEDEkbP0tyVn0-2" value="sum = 0&amp;nbsp;&lt;br&gt;num = i" style="rounded=1;whiteSpace=wrap;html=1;absoluteArcSize=1;arcSize=14;strokeWidth=2;" vertex="1" parent="1">
          <mxGeometry x="307" y="90" width="190" height="40" as="geometry" />
        </mxCell>
        <mxCell id="iLQZR6AZEDEkbP0tyVn0-3" value="" style="endArrow=classic;html=1;rounded=0;" edge="1" parent="1">
          <mxGeometry width="50" height="50" relative="1" as="geometry">
            <mxPoint x="399.5" y="70" as="sourcePoint" />
            <mxPoint x="399.5" y="90" as="targetPoint" />
          </mxGeometry>
        </mxCell>
        <mxCell id="iLQZR6AZEDEkbP0tyVn0-4" value="" style="endArrow=classic;html=1;rounded=0;" edge="1" parent="1">
          <mxGeometry width="50" height="50" relative="1" as="geometry">
            <mxPoint x="399.5" y="130" as="sourcePoint" />
            <mxPoint x="399.5" y="150" as="targetPoint" />
          </mxGeometry>
        </mxCell>
        <mxCell id="iLQZR6AZEDEkbP0tyVn0-5" value="input num" style="shape=parallelogram;perimeter=parallelogramPerimeter;whiteSpace=wrap;html=1;fixedSize=1;" vertex="1" parent="1">
          <mxGeometry x="340" y="150" width="120" height="50" as="geometry" />
        </mxCell>
        <mxCell id="iLQZR6AZEDEkbP0tyVn0-6" value="sum += num**2" style="rounded=1;whiteSpace=wrap;html=1;absoluteArcSize=1;arcSize=14;strokeWidth=2;" vertex="1" parent="1">
          <mxGeometry x="309" y="225" width="190" height="40" as="geometry" />
        </mxCell>
        <mxCell id="iLQZR6AZEDEkbP0tyVn0-8" value="" style="strokeWidth=2;html=1;shape=mxgraph.flowchart.start_1;whiteSpace=wrap;" vertex="1" parent="1">
          <mxGeometry x="350" y="356" width="100" height="60" as="geometry" />
        </mxCell>
        <mxCell id="iLQZR6AZEDEkbP0tyVn0-9" value="" style="endArrow=classic;html=1;rounded=0;" edge="1" parent="1">
          <mxGeometry width="50" height="50" relative="1" as="geometry">
            <mxPoint x="401.5" y="203" as="sourcePoint" />
            <mxPoint x="401.5" y="223" as="targetPoint" />
          </mxGeometry>
        </mxCell>
        <mxCell id="iLQZR6AZEDEkbP0tyVn0-11" value="t&lt;font style=&quot;font-size: 24px;&quot;&gt;Start&lt;/font&gt;" style="text;strokeColor=none;align=center;fillColor=none;html=1;verticalAlign=middle;whiteSpace=wrap;rounded=0;" vertex="1" parent="1">
          <mxGeometry x="370" y="30" width="60" height="30" as="geometry" />
        </mxCell>
        <mxCell id="iLQZR6AZEDEkbP0tyVn0-12" value="&lt;font style=&quot;font-size: 18px;&quot;&gt;End&lt;/font&gt;" style="text;strokeColor=none;align=center;fillColor=none;html=1;verticalAlign=middle;whiteSpace=wrap;rounded=0;" vertex="1" parent="1">
          <mxGeometry x="374" y="375" width="60" height="30" as="geometry" />
        </mxCell>
        <mxCell id="iLQZR6AZEDEkbP0tyVn0-13" value="output sum" style="shape=parallelogram;perimeter=parallelogramPerimeter;whiteSpace=wrap;html=1;fixedSize=1;" vertex="1" parent="1">
          <mxGeometry x="342" y="285" width="120" height="50" as="geometry" />
        </mxCell>
        <mxCell id="iLQZR6AZEDEkbP0tyVn0-18" value="" style="endArrow=classic;html=1;rounded=0;" edge="1" parent="1">
          <mxGeometry width="50" height="50" relative="1" as="geometry">
            <mxPoint x="402.5" y="266" as="sourcePoint" />
            <mxPoint x="402.5" y="286" as="targetPoint" />
          </mxGeometry>
        </mxCell>
        <mxCell id="iLQZR6AZEDEkbP0tyVn0-19" value="" style="endArrow=classic;html=1;rounded=0;" edge="1" parent="1">
          <mxGeometry width="50" height="50" relative="1" as="geometry">
            <mxPoint x="401.5" y="336" as="sourcePoint" />
            <mxPoint x="401.5" y="356" as="targetPoint" />
          </mxGeometry>
        </mxCell>
      </root>
    </mxGraphModel>
  </diagram>
</mxfile>
